<?xml version="1.0" encoding="UTF-8" standalone="no"?>
<!DOCTYPE svg PUBLIC "-//W3C//DTD SVG 20010904//EN"
              "http://www.w3.org/TR/2001/REC-SVG-20010904/DTD/svg10.dtd">

<svg xmlns="http://www.w3.org/2000/svg"
     width="16.5972in" height="13.0417in"
     viewBox="0 0 1195 939">
  <path id="Seleção"
        fill="none" stroke="black" stroke-width="1"
        d="M 244.17,693.21
           C 241.90,695.31 240.25,698.34 237.70,699.43
             235.48,700.37 223.23,700.01 220.00,700.00
             213.96,699.99 199.52,698.77 196.51,692.81
             193.75,687.36 195.96,681.58 195.73,677.00
             195.46,671.68 191.65,664.17 197.42,659.98
             199.59,658.41 211.26,655.92 214.00,656.31
             214.00,656.31 221.00,658.50 221.00,658.50
             225.27,659.52 228.09,657.80 232.00,658.50
             237.52,659.28 238.17,662.19 247.00,660.85
             251.49,660.17 254.55,658.93 257.96,655.87
             259.63,654.38 262.67,650.38 264.94,650.34
             267.41,650.29 267.77,653.17 267.62,655.01
             267.30,659.03 263.36,665.99 266.60,669.42
             269.88,672.88 281.29,670.82 283.34,677.09
             286.33,686.21 270.33,681.59 267.00,681.00
             267.00,681.00 262.00,693.21 262.00,693.21
             255.86,689.60 250.07,688.49 244.17,693.21 Z" />
</svg>
