<svg xmlns="http://www.w3.org/2000/svg" xmlns:xlink="http://www.w3.org/1999/xlink" width="1195" height="939" viewBox="0 0 1195 939">
  <metadata><?xpacket begin="﻿" id="W5M0MpCehiHzreSzNTczkc9d"?>
<x:xmpmeta xmlns:x="adobe:ns:meta/" x:xmptk="Adobe XMP Core 5.6-c142 79.160924, 2017/07/13-01:06:39        ">
   <rdf:RDF xmlns:rdf="http://www.w3.org/1999/02/22-rdf-syntax-ns#">
      <rdf:Description rdf:about=""/>
   </rdf:RDF>
</x:xmpmeta>
                                                                                                    
                                                                                                    
                                                                                                    
                                                                                                    
                                                                                                    
                                                                                                    
                                                                                                    
                                                                                                    
                                                                                                    
                                                                                                    
                                                                                                    
                                                                                                    
                                                                                                    
                                                                                                    
                                                                                                    
                                                                                                    
                                                                                                    
                                                                                                    
                                                                                                    
                                                                                                    
                           
<?xpacket end="w"?></metadata>
<image id="Fundo.svg" width="1195" height="939" />
  <image id="Mapa.svg" width="1195" height="939" />
  <image id="Unknown033.svg" x="130" y="130" width="131" height="189" />
  <image id="Unknown032.svg" x="138" y="252" width="75" height="54" />
  <image id="Unknown031.svg" x="67" y="259" width="102" height="144" />
  <image id="Unknown030.svg" x="175" y="272" width="136" height="140" />
  <image id="Unknown029.svg" x="223" y="258" width="126" height="170" />
  <image id="Unknown028.svg" x="700" y="445" width="171" height="158" />
  <image id="Unknown027.svg" x="682" y="534" width="129" height="96" />
  <image id="Unknown026.svg" x="776" y="518" width="122" height="91" />
  <image id="Unknown025.svg" x="669" y="457" width="137" height="84" />
  <image id="Unknown024.svg" x="717" y="382" width="160" height="130" />
  <image id="Unknown023.svg" x="615" y="370" width="116" height="84" />
  <image id="Unknown022.svg" x="743" y="141" width="154" height="134" />
  <image id="Unknown021.svg" x="613" y="281" width="95" height="84" />
  <image id="Unknown020.svg" x="643" y="114" width="154" height="115" />
  <image id="Unknown019.svg" x="551" y="-1" width="152" height="170" />
  <image id="Unknown018.svg" x="545" y="131" width="106" height="110" />
  <image id="Unknown017.svg" x="504" y="11" width="193" height="278" />
  <image id="Unknown016.svg" x="465" y="168" width="64" height="109" />
  <image id="Unknown015.svg" x="443" y="251" width="182" height="148" />
  <image id="Unknown014.svg" x="363" y="319" width="108" height="95" />
  <image id="Unknown013.svg" x="322" y="371" width="320" height="114" />
  <image id="Unknown012.svg" x="500" y="403" width="128" height="70" />
  <image id="Unknown011.svg" x="543" y="442" width="144" height="118" />
  <image id="Unknown010.svg" x="543" y="449" width="99" height="112" />
  <image id="Unknown009.svg" x="440" y="473" width="101" height="70" />
  <image id="Unknown008.svg" x="368" y="830" width="165" height="92" />
  <image id="Unknown007.svg" x="679" y="655" width="318" height="203" />
  <image id="Unknown006.svg" x="228" y="474" width="855" height="465" />
  <image id="Unknown005.svg" x="375" y="523" width="85" height="110" />
  <image id="Unknown004.svg" x="311" y="501" width="88" height="98" />
  <image id="Unknown003.svg" x="257" y="526" width="63" height="93" />
  <image id="Unknown002.svg" x="171" y="402" width="151" height="165" />
  <image id="Unknown001.svg" x="87" y="647" width="156" height="221" />
  <image id="Visigoths.svg" x="263" y="596" width="87" height="93" />
  <image id="Basques.svg" x="194" y="649" width="92" height="51" />
</svg>
